<svg width="123" height="28" viewBox="0 0 123 28" fill="none" xmlns="http://www.w3.org/2000/svg">
<path d="M1.26098 22V5.33884H8.14347C9.39088 5.33884 10.4675 5.5829 11.3732 6.07102C12.2844 6.55372 12.9867 7.22895 13.4802 8.09672C13.9738 8.95906 14.2206 9.96242 14.2206 11.1068C14.2206 12.2566 13.9684 13.2627 13.464 14.125C12.965 14.9819 12.2518 15.6463 11.3244 16.1182C10.397 16.59 9.29597 16.8259 8.02144 16.8259H3.77479V13.6531H7.27299C7.88042 13.6531 8.38753 13.5474 8.79429 13.3359C9.20648 13.1244 9.51834 12.8288 9.72986 12.4491C9.94138 12.064 10.0471 11.6166 10.0471 11.1068C10.0471 10.5916 9.94138 10.1468 9.72986 9.7726C9.51834 9.39295 9.20648 9.10008 8.79429 8.89398C8.3821 8.68789 7.875 8.58484 7.27299 8.58484H5.28797V22H1.26098ZM21.7925 22.2359C20.48 22.2359 19.3519 21.9675 18.4082 21.4305C17.4699 20.8882 16.7459 20.1343 16.2361 19.1689C15.7317 18.1981 15.4795 17.0727 15.4795 15.7927C15.4795 14.5074 15.7317 13.382 16.2361 12.4166C16.7459 11.4458 17.4699 10.6919 18.4082 10.155C19.3519 9.6126 20.48 9.34142 21.7925 9.34142C23.105 9.34142 24.2304 9.6126 25.1687 10.155C26.1124 10.6919 26.8364 11.4458 27.3408 12.4166C27.8506 13.382 28.1055 14.5074 28.1055 15.7927C28.1055 17.0727 27.8506 18.1981 27.3408 19.1689C26.8364 20.1343 26.1124 20.8882 25.1687 21.4305C24.2304 21.9675 23.105 22.2359 21.7925 22.2359ZM21.8169 19.234C22.2942 19.234 22.6983 19.0876 23.0291 18.7947C23.3599 18.5018 23.6121 18.095 23.7857 17.5744C23.9647 17.0537 24.0541 16.4517 24.0541 15.7683C24.0541 15.0741 23.9647 14.4667 23.7857 13.946C23.6121 13.4254 23.3599 13.0186 23.0291 12.7257C22.6983 12.4328 22.2942 12.2864 21.8169 12.2864C21.3234 12.2864 20.9058 12.4328 20.5641 12.7257C20.2278 13.0186 19.9702 13.4254 19.7912 13.946C19.6177 14.4667 19.5309 15.0741 19.5309 15.7683C19.5309 16.4517 19.6177 17.0537 19.7912 17.5744C19.9702 18.095 20.2278 18.5018 20.5641 18.7947C20.9058 19.0876 21.3234 19.234 21.8169 19.234ZM33.7311 18.7215L33.7474 13.9786H34.3006L37.8151 9.50413H42.322L37.0991 15.9148H36.0497L33.7311 18.7215ZM30.1434 22V5.33884H34.1216V22H30.1434ZM37.9045 22L34.6341 16.8097L37.2537 13.9867L42.501 22H37.9045ZM49.0723 22.2359C47.7652 22.2359 46.6371 21.9783 45.688 21.4631C44.7443 20.9424 44.0176 20.2021 43.5078 19.2421C43.0034 18.2767 42.7512 17.1296 42.7512 15.8009C42.7512 14.5101 43.0061 13.382 43.5159 12.4166C44.0257 11.4458 44.7443 10.6919 45.6718 10.155C46.5992 9.6126 47.692 9.34142 48.9503 9.34142C49.8398 9.34142 50.6533 9.47972 51.3909 9.75633C52.1285 10.0329 52.7658 10.4424 53.3027 10.9848C53.8396 11.5271 54.2572 12.1969 54.5555 12.9942C54.8538 13.786 55.003 14.6945 55.003 15.7195V16.712H44.1423V14.4016H51.3014C51.296 13.9786 51.1956 13.6016 51.0004 13.2708C50.8051 12.94 50.5367 12.6823 50.195 12.4979C49.8587 12.3081 49.471 12.2132 49.0316 12.2132C48.5869 12.2132 48.1883 12.3135 47.8358 12.5142C47.4832 12.7095 47.2039 12.9779 46.9978 13.3196C46.7917 13.6559 46.6832 14.0382 46.6724 14.4667V16.8178C46.6724 17.3276 46.7727 17.7751 46.9734 18.1601C47.1741 18.5398 47.4588 18.8354 47.8276 19.0469C48.1964 19.2584 48.6357 19.3642 49.1455 19.3642C49.4981 19.3642 49.8181 19.3153 50.1055 19.2177C50.393 19.1201 50.6397 18.9764 50.8458 18.7865C51.0519 18.5967 51.2065 18.3635 51.3095 18.0869L54.9623 18.1927C54.8104 19.0116 54.4769 19.7248 53.9617 20.3323C53.4518 20.9343 52.782 21.4034 51.9522 21.7397C51.1224 22.0705 50.1625 22.2359 49.0723 22.2359ZM57.0348 22V9.50413H60.8991V11.782H61.0292C61.257 10.9576 61.6285 10.3448 62.1438 9.94344C62.659 9.53667 63.2583 9.33329 63.9417 9.33329C64.1261 9.33329 64.3159 9.34685 64.5111 9.37397C64.7064 9.39566 64.8881 9.43091 65.0562 9.47972V12.9372C64.8664 12.8722 64.6169 12.8206 64.3078 12.7827C64.004 12.7447 63.7329 12.7257 63.4942 12.7257C63.0224 12.7257 62.5966 12.8315 62.217 13.043C61.8428 13.2491 61.5472 13.5393 61.3302 13.9135C61.1187 14.2823 61.013 14.7162 61.013 15.2151V22H57.0348Z" fill="white"/>
<rect x="71.0908" y="0.489014" width="51.8794" height="27.022" rx="5.09091" fill="#0078F3" fill-opacity="0.2"/>
<path d="M105.311 22.2412V5.58008H109.289V11.885H109.37C109.533 11.5053 109.763 11.1392 110.062 10.7867C110.365 10.4342 110.75 10.1467 111.217 9.92435C111.689 9.69656 112.253 9.58266 112.909 9.58266C113.777 9.58266 114.588 9.81045 115.341 10.266C116.101 10.7216 116.714 11.424 117.18 12.3731C117.646 13.3222 117.88 14.5317 117.88 16.0014C117.88 17.417 117.655 18.602 117.204 19.5566C116.76 20.5111 116.158 21.227 115.398 21.7043C114.644 22.1816 113.807 22.4202 112.885 22.4202C112.255 22.4202 111.71 22.3172 111.249 22.1111C110.788 21.905 110.401 21.6338 110.086 21.2975C109.777 20.9613 109.538 20.6006 109.37 20.2155H109.248V22.2412H105.311ZM109.207 15.9933C109.207 16.6658 109.297 17.2516 109.476 17.7505C109.66 18.2495 109.923 18.6373 110.265 18.9139C110.612 19.1851 111.027 19.3207 111.51 19.3207C111.998 19.3207 112.413 19.1851 112.754 18.9139C113.096 18.6373 113.354 18.2495 113.527 17.7505C113.706 17.2516 113.796 16.6658 113.796 15.9933C113.796 15.3208 113.706 14.7377 113.527 14.2442C113.354 13.7507 113.096 13.3683 112.754 13.0971C112.418 12.8259 112.003 12.6904 111.51 12.6904C111.022 12.6904 110.607 12.8232 110.265 13.089C109.923 13.3547 109.66 13.7344 109.476 14.2279C109.297 14.7215 109.207 15.3099 109.207 15.9933Z" fill="#0078F3"/>
<path d="M98.8082 16.8475V9.74536H102.778V22.2412H98.9872V19.9145H98.857C98.5804 20.6792 98.1086 21.2867 97.4415 21.7368C96.7798 22.1816 95.9798 22.4039 95.0415 22.4039C94.1901 22.4039 93.4416 22.2087 92.7962 21.8182C92.1508 21.4277 91.6491 20.8826 91.2912 20.183C90.9332 19.4779 90.7515 18.6535 90.7461 17.7099V9.74536H94.7243V16.9289C94.7297 17.6068 94.9087 18.141 95.2612 18.5315C95.6137 18.922 96.0937 19.1173 96.7012 19.1173C97.0971 19.1173 97.4523 19.0305 97.7669 18.8569C98.0869 18.678 98.3391 18.4203 98.5235 18.0841C98.7133 17.7424 98.8082 17.3302 98.8082 16.8475Z" fill="#0078F3"/>
<path d="M80.1598 15.1147V22.2412H76.1816V5.58008H80.0297V12.0395H80.168C80.45 11.2694 80.911 10.6674 81.551 10.2335C82.1964 9.7996 82.9855 9.58266 83.9183 9.58266C84.797 9.58266 85.5617 9.77791 86.2125 10.1684C86.8633 10.5535 87.3677 11.0985 87.7257 11.8036C88.0891 12.5087 88.268 13.333 88.2626 14.2767V22.2412H84.2844V15.0577C84.2899 14.3635 84.1163 13.8212 83.7638 13.4307C83.4112 13.0402 82.915 12.8449 82.275 12.8449C81.8574 12.8449 81.4886 12.9371 81.1686 13.1215C80.854 13.3005 80.6073 13.5581 80.4283 13.8944C80.2547 14.2306 80.1652 14.6374 80.1598 15.1147Z" fill="#0078F3"/>
</svg>